<svg viewBox="0 0 1482 782" fill="none" xmlns="http://www.w3.org/2000/svg">
  <path d="M703.076 234.161C710.096 242.43 733.467 282.217 736.667 284.792L738.628 284.517C751.428 269.116 768.818 257.997 788.978 255.022C798.718 253.586 817.747 257.99 824.677 264.669C838.907 278.4 851.657 300.253 862.927 316.94C873.117 331.876 883.407 346.744 893.797 361.543C926.847 408.449 960.477 454.929 994.677 500.999C1082.6 460.649 1155.4 507.819 1200.72 582.469C1206.87 592.609 1216.9 607.729 1224.23 616.909C1244.66 642.129 1269.13 663.779 1296.65 680.989C1341.73 709.449 1392.62 720.269 1444.43 729.459C1454.36 731.229 1470.53 732.449 1480.36 735.729C1480.8 736.519 1481.24 737.299 1481.68 738.089C1479.74 746.809 1464.57 748.119 1456.8 749.359C1417.59 755.639 1370.8 754.399 1332.17 744.519C1285.08 732.529 1241.68 709.089 1205.84 676.269C1195.79 666.899 1181.24 651.019 1172.58 640.089C1133.76 591.069 1087.39 517.809 1015.25 558.679C993.588 570.949 970.737 596.099 950.407 611.679C946.847 614.409 925.568 631.049 924.078 632.909C923.908 640.079 943.638 660.249 949.448 666.429C965.108 682.499 985.537 700.709 1009.14 701.939C1020.44 702.539 1034.79 696.839 1042.3 688.829C1058.16 671.919 1058.72 644.499 1050.22 623.959C1044.37 609.799 1035.66 597.609 1030.21 583.429C1030.56 582.729 1030.9 582.029 1031.25 581.329C1034.7 579.239 1039.88 579.509 1043.41 580.829C1111.63 606.319 1115.63 711.279 1053.16 745.279C1011.46 767.969 964.077 752.479 930.297 724.539C916.717 712.979 895.757 693.919 886.137 679.059L887.628 676.969C886.508 672.799 878.458 661.579 874.948 660.459C865.098 657.329 840.867 671.369 831.417 669.339C830.237 666.579 830.838 662.599 833.088 660.549C836.018 661.109 836.188 661.289 839.098 660.989L840.228 659.279C841.858 638.549 833.687 641.989 831.257 632.719C830.827 631.109 830.438 629.489 830.088 627.869C825.198 626.939 823.737 629.829 820.397 624.719C824.397 623.959 827.207 623.579 831.267 623.189C835.817 622.089 838.727 621.769 842.557 619.069C843.677 615.269 829.768 593.929 826.988 589.039C817.018 571.399 807.157 553.689 797.387 535.929C780.317 504.449 763.998 471.399 747.588 439.549L693.924 337.862C700.414 338.784 701.316 341.426 706.023 346.663C707.088 345.579 706.722 345.086 707.036 342.912C705.636 341.187 704.723 339.925 703.463 338.092C702.241 325.826 706.374 312.277 706.284 299.691C706.304 290.177 699.254 270.891 705.971 263.097C716.697 250.647 702.636 250.045 703.076 234.161ZM886.198 578.219C888.738 581.009 891.128 585.089 893.198 588.339C904.608 580.149 967.898 524.209 974.628 514.619C967.818 507.949 957.377 502.259 950.057 495.869C895.737 448.429 854.548 388.029 806.228 334.868C790.058 317.08 783.368 321.187 764.598 331.906C763.838 333.094 762.728 333.97 763.358 335.223C803.568 414.619 840.888 502.069 886.198 578.219Z" fill="url(#logo-grad)"/>
  <path d="M703.076 234.161C710.096 242.43 733.467 282.217 736.667 284.792L738.628 284.517C740.988 295.788 754.677 320.412 761.427 330.582C762.697 331.201 763.258 331.62 764.598 331.906C763.838 333.094 762.728 333.97 763.358 335.223C803.568 414.619 840.888 502.069 886.198 578.219L883.608 578.359C877.848 572.959 874.138 571.029 871.328 563.029L870.907 561.879L869.958 564.609L869.068 563.699C869.138 561.939 869.467 556.589 868.887 555.459C865.167 548.279 846.758 512.279 843.738 508.729C831.908 510.539 829.977 534.629 832.767 542.629C835.557 544.299 836.068 544.209 839.198 544.869C839.898 554.249 842.228 562.589 837.128 569.409C841.078 579.369 844.357 580.009 839.177 589.729C840.167 599.829 847.928 613.669 845.068 620.669C843.178 622.169 842.238 623.149 839.988 624.029C838.338 623.719 833.177 623.359 831.267 623.189C835.817 622.089 838.727 621.769 842.557 619.069C843.677 615.269 829.768 593.929 826.988 589.039C817.018 571.399 807.157 553.689 797.387 535.929C780.317 504.449 763.998 471.399 747.588 439.549L693.924 337.862C700.414 338.784 701.316 341.426 706.023 346.663C707.088 345.579 706.722 345.086 707.036 342.912C705.636 341.187 704.723 339.925 703.463 338.092C702.241 325.826 706.374 312.277 706.284 299.691C706.304 290.177 699.254 270.891 705.971 263.097C716.697 250.647 702.636 250.045 703.076 234.161Z" fill="url(#logo-grad)"/>
  <path d="M820.397 624.719C824.397 623.959 827.207 623.579 831.267 623.189C833.177 623.359 838.338 623.719 839.988 624.029C838.478 626.619 838.777 626.629 838.267 629.589C834.857 630.159 833.498 628.589 830.088 627.869C825.198 626.939 823.737 629.829 820.397 624.719Z" fill="url(#logo-grad)"/>
  <path d="M606.82 195.269C605.143 194.257 595.158 179.932 593.562 177.669C574.801 151.07 552.044 119.839 523.145 157.857C502.501 185.017 485.729 215.908 467.367 244.763C441.864 284.839 418.827 346.276 360.281 307.498C346.019 300.16 339.322 312.165 332.138 322.355C238.589 455.039 151.085 591.829 55.1925 722.899C46.3745 734.949 16.4055 777.649 3.8445 781.759C-2.8495 780.009 0.817478 768.949 2.81548 764.369C46.6885 663.739 110.138 565.639 167.288 472.329C197.665 421.739 229.006 371.739 261.291 322.341C276.892 298.79 292.271 274.994 310.244 253.68C329.586 230.702 351.373 235.931 374.909 247.299C388.652 253.937 394.512 244.411 400.609 235.044C437.894 177.764 472.432 118.827 511.477 62.711C517.33 54.299 548.736 2.24 553.724 0C557.523 2.17 584.973 47.482 587.091 53.282C593.086 61.298 599.351 71.839 604.521 80.568C624.818 114.835 646.596 147.862 668.778 180.923C674.113 188.876 681.51 198.965 685.966 207.25C689.515 212.344 701.613 229.345 703.076 234.161C702.636 250.045 716.697 250.647 705.971 263.097C699.254 270.891 706.304 290.177 706.284 299.691C706.374 312.277 702.241 325.826 703.463 338.092C704.723 339.925 705.636 341.187 707.036 342.912C706.722 345.086 707.088 345.579 706.023 346.663C701.316 341.426 700.414 338.784 693.924 337.862C687.745 327.771 680.415 313.49 674.432 302.868C666.285 288.618 657.848 274.536 649.128 260.63C636.037 239.443 618.593 215.777 606.82 195.269Z" fill="url(#logo-grad)"/>
  <path d="M587.091 53.282C593.086 61.298 599.351 71.839 604.521 80.568C624.818 114.835 646.596 147.862 668.778 180.923C674.113 188.876 681.51 198.965 685.966 207.25C689.515 212.344 701.613 229.345 703.076 234.161C702.636 250.045 716.697 250.647 705.971 263.097C699.254 270.891 706.304 290.177 706.284 299.691C706.374 312.277 702.241 325.826 703.463 338.092C704.723 339.925 705.636 341.187 707.036 342.912C706.722 345.086 707.088 345.579 706.023 346.663C701.316 341.426 700.414 338.784 693.924 337.862C687.745 327.771 680.415 313.49 674.432 302.868C666.285 288.618 657.848 274.536 649.128 260.63C636.037 239.443 618.593 215.777 606.82 195.269C618.542 200.356 668.794 290.151 677.015 292.498C677.737 290.354 677.499 290.993 677.432 288.587C683.367 281.554 680.648 278.805 680.724 269.734C680.737 268.132 680.445 268.133 680.078 266.596C678.856 263.181 682.863 257.396 682.054 253.952C679.417 242.732 680.919 231.033 679.159 219.399C678.242 213.341 675.354 216.499 675.13 211.174C675.11 210.707 677.416 206.285 677.838 205.565C675.81 204.871 675.044 204.651 672.976 204.322L671.234 204.053C670.018 202.576 669.625 202.032 669.778 200.018C671.544 191.082 660.307 182.312 658.409 175.989C653.854 160.809 637.818 143.071 631.687 132.423C624.925 120.68 587.614 62.94 587.091 53.282Z" fill="url(#logo-grad)"/>
  <path d="M610.615 590.699C607.346 589.809 591.095 578.879 585.986 576.399C571.01 569.129 555.469 561.769 539.539 556.909C389.061 511.019 252.728 619.919 137.933 701.489C130.311 706.909 109.817 722.209 100.66 719.189C96.9465 710.889 122.739 682.989 128.87 676.439C243.931 553.369 413.84 447.039 585.255 518.529C602.543 525.639 657.105 554.879 669.877 567.079C661.689 579.119 679.763 606.319 664.531 627.459C649.644 618.719 624.443 601.419 610.615 590.699Z" fill="url(#logo-grad)"/>
  <path d="M585.255 518.529C602.543 525.639 657.105 554.879 669.877 567.079C661.689 579.119 679.763 606.319 664.531 627.459C649.644 618.719 624.443 601.419 610.615 590.699C623.764 591.069 655.131 620.929 666.083 620.929C667.947 610.289 665.633 601.529 664.766 591.399C664.279 585.699 664.654 576.149 664.765 570.209L663.091 568.769C653.263 567.969 654.666 566.409 649.385 558.309L645.495 558.499C636.515 550.519 628.364 543.319 617.911 537.269C609.038 532.129 590.961 526.519 585.255 518.529Z" fill="url(#logo-grad)"/>
  <path d="M669.877 567.079C718.747 599.919 758.977 629.909 820.397 624.719C823.737 629.829 825.198 626.939 830.088 627.869C830.438 629.489 830.827 631.109 831.257 632.719C833.687 641.989 841.858 638.549 840.228 659.279L839.098 660.989C836.188 661.289 836.018 661.109 833.088 660.549C830.838 662.599 830.237 666.579 831.417 669.339C840.867 671.369 865.098 657.329 874.948 660.459C878.458 661.579 886.508 672.799 887.628 676.969L886.137 679.059C882.847 675.549 876.107 666.099 872.927 661.869C860.437 664.729 847.628 670.959 833.838 673.579C768.718 685.939 717.197 661.779 664.531 627.459C679.763 606.319 661.689 579.119 669.877 567.079Z" fill="url(#logo-grad)"/>
  <defs>
    <linearGradient id="logo-grad" x1="0" y1="390.879" x2="1481.68" y2="390.879" gradientUnits="userSpaceOnUse">
      <stop offset="0.418269" stop-color="#FF8A00"/>
      <stop offset="0.841346" stop-color="#00D1FF"/>
    </linearGradient>
  </defs>
</svg>
