<svg xmlns="http://www.w3.org/2000/svg" viewBox="0 0 150 40" fill="white">
  <!-- Apple logo path -->
  <path d="M20,8.5 C19.2,9.3 17.8,10 16.5,9.9 C16.3,8.6 17,7.2 17.8,6.4 C18.7,5.5 20.2,4.9 21.3,4.8 C21.5,6.2 20.8,7.7 20,8.5 Z M21.3,10.2 C19.4,10.1 17.8,11.3 16.9,11.3 C16,11.3 14.6,10.3 13,10.3 C10.8,10.3 8.7,11.7 7.6,13.9 C5.3,18.3 7,25.1 9.2,28.8 C10.3,30.6 11.7,32.6 13.5,32.5 C15.2,32.4 15.9,31.4 17.9,31.4 C19.9,31.4 20.5,32.5 22.3,32.4 C24.2,32.3 25.4,30.4 26.5,28.6 C27.7,26.6 28.2,24.6 28.2,24.5 C28.2,24.5 24,23 24,18.3 C24,14.2 27.4,12.3 27.5,12.2 C25.4,9.2 22.1,10 21.3,10.2 Z"/>
  <!-- Apple Watch text -->
  <text x="34" y="27" font-family="system-ui, Arial, sans-serif" font-size="19" font-weight="600" letter-spacing="0.3">Apple Watch</text>
</svg>
