<?xml version="1.0" encoding="UTF-8"?>
<!-- Generator: Adobe Illustrator 12.0.1, SVG Export Plug-In . SVG Version: 6.00 Build 51448)  -->
<!DOCTYPE svg PUBLIC "-//W3C//DTD SVG 1.0//EN" "http://www.w3.org/TR/2001/REC-SVG-20010904/DTD/svg10.dtd" [
	<!ENTITY ns_svg "http://www.w3.org/2000/svg">
	<!ENTITY ns_xlink "http://www.w3.org/1999/xlink">
]>
<svg version="1.0" id="Layer_1" xmlns="http://www.w3.org/2000/svg" xmlns:xlink="http://www.w3.org/1999/xlink" width="425.196" height="136.938" viewBox="0 0 425.196 136.938" overflow="visible" enable-background="new 0 0 425.196 136.938" xml:space="preserve">
<g>
	<polyline fill="#CE1F44" points="213.966,0 191.145,31.733 237.036,31.733 213.966,0"/>
	<path fill-rule="evenodd" clip-rule="evenodd" fill="#231F20" d="M388.473,77.638c-5.338,0.06-10.768,2.168-14.469,5.342   c-3.706,3.156-5.674,7.374-6.62,12.256c-0.951,4.896-0.872,10.46,0.521,15.152c1.388,4.701,4.095,8.526,7.688,11.19   c3.595,2.666,8.077,4.171,12.932,4.073c4.85-0.089,10.065-1.793,13.915-4.575c3.844-2.786,6.317-6.653,7.652-11.095   c1.334-4.438,1.525-9.471,0.361-14.299c-1.159-4.836-3.669-9.47-7.545-12.785C399.038,79.577,393.801,77.572,388.473,77.638    M388.201,66.917c-8.062,0.212-16.468,2.831-22.795,7.584c-6.327,4.742-10.582,11.629-12.459,19.259   c-1.876,7.628-1.383,15.992,1.766,23.021c3.154,7.024,8.965,12.709,15.154,15.974c6.189,3.267,12.752,4.118,18.658,4.177   c5.913,0.057,11.166-0.682,17.101-3.604s12.544-8.015,16.191-15.654c3.643-7.628,4.317-17.797,2.138-25.983   c-2.181-8.188-7.211-14.383-13.587-18.587C403.994,68.906,396.268,66.699,388.201,66.917z"/>
	<path fill="#231F20" d="M193.851,70.522c0,13.6,0,27.19,0,40.785c0,0.104-0.144,1.428-0.25,2.403   c-0.101,0.957-0.165,1.582-0.324,2.329c-0.186,0.832-0.495,1.83-1.032,2.717c-0.563,0.941-1.383,1.781-2.196,2.468   c-0.766,0.647-1.526,1.164-2.425,1.683c-1.031,0.599-2.238,1.186-3.552,1.589c-1.361,0.419-2.84,0.636-4.153,0.745   c-1.17,0.098-2.212,0.11-3.361,0.051c-1.233-0.071-2.589-0.233-3.833-0.514c-1.181-0.271-2.249-0.658-3.318-1.17   c-1.063-0.523-2.132-1.178-2.988-1.96c-0.75-0.688-1.34-1.47-1.776-2.149c-0.373-0.59-0.627-1.105-0.931-1.911   c-0.383-1.053-0.84-2.592-0.84-3.519c0-14.516,0-29.031,0-43.547c0-0.188-0.069-0.594-0.138-0.852   c-0.054-0.188-0.112-0.302-0.197-0.401c-0.069-0.093-0.165-0.175-0.266-0.234c-0.106-0.061-0.229-0.098-0.351-0.114h-11.99   c-0.138,0.027-0.303,0.09-0.441,0.151c-0.127,0.057-0.234,0.104-0.33,0.197c-0.117,0.114-0.218,0.292-0.292,0.531   c-0.085,0.295-0.138,0.681-0.133,0.878c0,14.817,0,29.63,0,44.458c0,1.095,0.09,2.156,0.276,3.287   c0.202,1.227,0.532,2.533,0.931,3.715c0.372,1.123,0.813,2.119,1.457,3.108c0.712,1.116,1.665,2.229,2.723,3.262   c1.095,1.072,2.291,2.063,3.578,2.914c1.287,0.854,2.654,1.566,4.052,2.188c1.398,0.628,2.834,1.15,4.371,1.591   c1.632,0.467,3.376,0.836,5.109,1.127c1.681,0.282,3.345,0.489,4.909,0.53c1.473,0.041,2.839-0.067,4.376-0.259   c1.659-0.209,3.509-0.512,5.046-0.795c1.282-0.245,2.345-0.479,3.51-0.806c1.292-0.349,2.711-0.806,4.185-1.389   c1.616-0.637,3.286-1.427,4.775-2.39c1.446-0.93,2.707-2.041,3.908-3.246c1.17-1.175,2.287-2.442,3.122-3.652   c0.718-1.04,1.223-2.025,1.589-3.246c0.404-1.354,0.638-2.993,0.792-4.376c0.148-1.304,0.233-2.375,0.329-3.912   c0.101-1.452,0.213-3.32,0.213-3.472c0-12.982,0-25.961,0-38.943c0-0.178-0.063-0.589-0.138-0.849   c-0.053-0.185-0.111-0.3-0.187-0.403c-0.08-0.085-0.169-0.172-0.276-0.233c-0.106-0.053-0.223-0.096-0.345-0.11h-11.985   c-0.144,0.035-0.309,0.093-0.446,0.154c-0.128,0.054-0.234,0.104-0.33,0.189c-0.117,0.11-0.217,0.294-0.282,0.481   C193.925,69.809,193.893,70.014,193.851,70.522"/>
	<path fill="#231F20" d="M348.923,69.91c0,2.588,0,5.169,0,7.755c0,0.942-0.182,1.528-2.058,1.579c-5.881,0-11.769,0-17.648,0   c-0.708,0-1.941-0.061-2.526,0.62c-0.479,0.545-0.521,1.579-0.521,1.65c0,17.4,0,34.81,0,52.21c0,0.012-0.064,0.734-0.304,1.117   c-0.239,0.359-0.647,0.401-1.01,0.401c-3.839,0-7.678,0-11.517,0c-0.006,0-0.521,0.041-0.777-0.162   c-0.308-0.239-0.229-0.826-0.229-1.153c0-17.332,0-34.669,0-52.012c0-0.063-0.079-1.159-0.537-1.762   c-0.504-0.681-1.463-0.77-2.146-0.77c-6.09,0-12.178,0-18.26,0c-0.538,0-1.032,0.012-1.331-0.207   c-0.308-0.228-0.394-0.686-0.394-1.095c0-2.771,0-5.541,0-8.314c0-0.01,0.161-0.487,0.447-0.732c0.361-0.311,0.92-0.29,1.277-0.29   c18.604,0,37.216,0,55.819,0C348.593,68.747,348.933,69.116,348.923,69.91"/>
	<path fill="#231F20" d="M222.026,68.768h9.305c0.329-0.059,1.148,0.029,1.653,0.3c0.474,0.25,0.682,0.647,0.799,0.69   c10.059,13.689,20.119,27.369,30.185,41.065c0.107,0.135,0.404,0.446,0.633,0.581c0.149,0.094,0.277,0.1,0.389,0.073   c0.102-0.011,0.188-0.051,0.261-0.115c0.127-0.104,0.219-0.306,0.256-0.827V70.679c0.01-0.311-0.043-0.806,0.116-1.216   c0.09-0.238,0.255-0.451,0.447-0.575c0.309-0.194,0.696-0.168,1.068-0.168c3.669,0,7.338,0,11.007,0c0.251,0,0.58,0.13,0.809,0.271   c0.201,0.125,0.329,0.252,0.398,0.529c0.074,0.315,0.085,0.806,0.085,0.815c0,21.018,0,42.374,0,63.386   c0,0.01-0.011,0.637-0.229,0.975c-0.197,0.304-0.33,0.314-0.521,0.396c-0.197,0.078-0.421,0.143-0.638,0.143   c-3.388,0-6.781,0-10.168,0c-0.005,0-0.281-0.012-0.606-0.13c-0.361-0.132-0.723-0.62-0.893-0.865   c-10.284-14.151-20.566-28.314-30.855-42.472c0.021-0.026-0.395-0.638-0.687-0.897c-0.187-0.174-0.325-0.197-0.452-0.158   c-0.111,0.043-0.228,0.13-0.297,0.333c-0.111,0.338-0.111,0.967-0.111,1.212c0,13.819,0,27.639,0,41.459   c0,0.01-0.124,0.795-0.49,1.18c-0.431,0.452-1.207,0.373-1.701,0.373c-3.542,0-7.077,0-10.619,0c-0.005,0-0.596-0.181-0.882-0.503   c-0.319-0.358-0.245-0.894-0.245-1.278c0-20.783,0-41.567,0-62.355c0.059-0.691-0.021-1.216,0.314-1.673   c0.174-0.249,0.483-0.483,0.766-0.587C221.452,68.747,221.75,68.819,222.026,68.768"/>
	<path fill="#231F20" d="M0.18,123.994c-0.17,0.25-0.191,0.469-0.176,0.654c0.021,0.187,0.088,0.333,0.447,0.753   c0.364,0.423,1.023,1.113,1.611,1.715c0.593,0.608,1.116,1.117,1.869,1.73c0.75,0.608,1.726,1.329,2.901,2.037   c1.178,0.707,2.55,1.408,4.057,2.058s3.153,1.252,4.857,1.786c1.709,0.54,3.485,1.018,5.264,1.351   c1.782,0.337,3.573,0.516,5.381,0.651c1.813,0.133,3.637,0.218,5.314,0.208c1.675-0.006,3.201-0.126,4.911-0.327   c1.709-0.188,3.605-0.463,5.424-0.833c1.818-0.363,3.565-0.827,5.221-1.361c1.654-0.533,3.217-1.138,4.656-1.828   c1.43-0.687,2.738-1.461,3.756-2.108c1.023-0.652,1.758-1.191,2.537-1.903c0.784-0.715,1.611-1.625,2.297-2.431   c0.694-0.811,1.242-1.529,1.723-2.281c0.479-0.753,0.879-1.548,1.223-2.4c0.338-0.851,0.617-1.776,0.79-2.607   c0.175-0.833,0.253-1.59,0.306-2.309c0.056-0.721,0.093-1.402,0.083-2.141c-0.011-0.746-0.066-1.559-0.17-2.336   c-0.098-0.786-0.244-1.535-0.458-2.297c-0.212-0.747-0.483-1.497-0.864-2.218c-0.377-0.724-0.856-1.399-1.275-1.98   c-0.423-0.593-0.795-1.08-1.295-1.611c-0.5-0.534-1.127-1.106-1.874-1.672c-0.739-0.572-1.595-1.144-2.396-1.617   c-0.806-0.48-1.555-0.866-2.329-1.227c-0.768-0.369-1.562-0.717-2.446-1.05c-0.888-0.331-1.861-0.664-3.07-0.98   c-1.21-0.311-2.651-0.613-4.148-0.904c-1.494-0.284-3.039-0.544-4.634-0.82c-1.595-0.271-3.24-0.557-4.856-0.82   c-1.617-0.249-3.202-0.467-4.557-0.701c-1.351-0.239-2.468-0.479-3.568-0.718c-1.093-0.229-2.172-0.451-3.076-0.718   c-0.904-0.269-1.638-0.572-2.308-0.928c-0.669-0.354-1.278-0.76-1.678-1.061c-0.396-0.312-0.576-0.511-0.773-0.8   c-0.188-0.282-0.391-0.644-0.556-1.062c-0.162-0.42-0.287-0.882-0.358-1.396c-0.069-0.51-0.093-1.056-0.038-1.637   c0.048-0.582,0.167-1.189,0.327-1.683c0.146-0.501,0.332-0.884,0.598-1.274c0.261-0.386,0.609-0.769,1.013-1.144   c0.406-0.383,0.877-0.752,1.355-1.073c0.473-0.328,0.962-0.609,1.612-0.926c0.654-0.332,1.464-0.691,2.307-0.991   c0.846-0.293,1.723-0.517,2.712-0.708c0.997-0.173,2.119-0.315,3.105-0.391c0.984-0.071,1.84-0.071,2.885-0.011   c1.045,0.059,2.286,0.185,3.32,0.359c1.042,0.167,1.875,0.391,2.778,0.702c0.904,0.305,1.877,0.69,2.744,1.051   c0.867,0.372,1.616,0.715,2.43,1.203c0.811,0.49,1.685,1.118,2.396,1.704c0.712,0.593,1.263,1.144,1.73,1.633   c0.468,0.486,0.854,0.909,1.123,1.183c0.265,0.267,0.406,0.392,0.565,0.469c0.151,0.088,0.312,0.141,0.5,0.161   c0.191,0.012,0.415-0.021,0.821-0.183c3.018-2.114,6.041-4.242,9.061-6.359c0.131-0.093,0.295-0.295,0.399-0.468   c0.103-0.197,0.146-0.372,0-0.659c-0.457-0.899-2.749-2.882-4.815-4.363c-2.053-1.471-3.881-2.443-5.53-3.249   c-1.412-0.686-2.696-1.246-4.296-1.759c-1.928-0.614-4.312-1.154-6.514-1.497c-2.122-0.327-4.073-0.479-6.245-0.453   c-2.329,0.027-4.911,0.256-7.16,0.521c-1.997,0.218-3.736,0.465-5.597,0.904c-2.031,0.481-4.219,1.204-6.38,2.15   c-2.239,0.987-4.451,2.233-6.187,3.708c-1.497,1.285-2.635,2.75-3.512,4.095c-0.696,1.079-1.226,2.093-1.627,3.007   c-0.343,0.766-0.601,1.48-0.779,2.34c-0.191,0.903-0.3,1.988-0.394,2.729c-0.069,0.565-0.13,0.928-0.13,1.563   c0,1.033,0.16,2.783,0.457,4.1c0.258,1.155,0.623,1.982,1.173,2.935c0.667,1.153,1.611,2.488,2.864,3.708   c1.414,1.373,3.222,2.598,4.878,3.451c1.476,0.753,2.827,1.21,4.427,1.688c1.916,0.572,4.192,1.179,6.577,1.63   c2.536,0.479,5.206,0.795,7.611,1.103c2.13,0.28,4.058,0.557,5.924,0.846c1.683,0.267,3.31,0.533,4.753,0.915   c1.205,0.316,2.276,0.702,3.186,1.101c0.784,0.348,1.449,0.707,2.15,1.239c0.8,0.611,1.656,1.47,2.146,2.414   c0.457,0.874,0.598,1.823,0.654,2.732c0.047,0.833,0.021,1.628-0.131,2.405c-0.165,0.807-0.462,1.606-1.042,2.407   c-0.723,1.003-1.876,2.011-3.057,2.737c-1.178,0.711-2.379,1.14-3.776,1.487c-1.518,0.388-3.261,0.688-4.687,0.845   c-1.215,0.146-2.199,0.187-3.454,0.137c-1.446-0.054-3.249-0.24-4.615-0.392c-1.123-0.119-1.954-0.229-3.061-0.452   c-1.339-0.284-3.081-0.758-4.363-1.236c-1.007-0.382-1.725-0.768-2.537-1.172c-0.946-0.474-2.021-0.973-3.256-1.954   c-1.404-1.116-3.02-2.853-3.55-3.363c-0.151-0.148-0.212-0.181-0.311-0.223c-0.104-0.046-0.239-0.072-0.396-0.083   c-0.186-0.027-0.41-0.027-0.561,0L0.18,123.994"/>
	<path fill="#231F20" d="M122.286,70.522c0,13.6,0,27.19,0,40.785c0,0.104-0.149,1.428-0.25,2.403   c-0.107,0.957-0.166,1.582-0.33,2.329c-0.186,0.832-0.495,1.83-1.026,2.717c-0.569,0.941-1.383,1.781-2.196,2.468   c-0.766,0.647-1.531,1.164-2.43,1.683c-1.026,0.599-2.239,1.186-3.546,1.589c-1.367,0.419-2.845,0.636-4.158,0.745   c-1.17,0.098-2.207,0.11-3.36,0.051c-1.234-0.071-2.595-0.233-3.828-0.514c-1.186-0.271-2.255-0.658-3.318-1.17   c-1.074-0.523-2.132-1.178-2.988-1.96c-0.75-0.688-1.34-1.47-1.776-2.149c-0.378-0.59-0.633-1.105-0.931-1.911   c-0.394-1.053-0.851-2.592-0.851-3.519c0-14.516,0-29.031,0-43.547c0.005-0.188-0.059-0.594-0.133-0.852   c-0.059-0.188-0.112-0.302-0.192-0.401c-0.074-0.093-0.165-0.175-0.271-0.234c-0.106-0.061-0.223-0.098-0.345-0.114H78.36   c-0.133,0.027-0.25,0.043-0.394,0.104c-0.122,0.047-0.288,0.151-0.378,0.244c-0.117,0.114-0.212,0.292-0.292,0.531   c-0.084,0.295-0.138,0.681-0.127,0.878c0,14.817,0,29.63,0,44.458c0,1.095,0.08,2.156,0.271,3.287   c0.208,1.227,0.531,2.533,0.93,3.715c0.378,1.123,0.819,2.119,1.462,3.108c0.708,1.116,1.665,2.229,2.717,3.262   c1.096,1.072,2.297,2.063,3.578,2.914c1.282,0.854,2.654,1.566,4.047,2.188c1.403,0.628,2.845,1.15,4.381,1.591   c1.627,0.467,3.371,0.836,5.104,1.127c1.681,0.282,3.35,0.489,4.908,0.53c1.467,0.041,2.839-0.067,4.376-0.259   c1.658-0.209,3.509-0.512,5.041-0.795c1.292-0.245,2.355-0.479,3.519-0.806c1.288-0.349,2.712-0.806,4.174-1.389   c1.617-0.637,3.297-1.427,4.775-2.39c1.452-0.93,2.712-2.041,3.914-3.246c1.176-1.175,2.287-2.442,3.122-3.652   c0.717-1.04,1.228-2.025,1.59-3.246c0.404-1.354,0.638-2.993,0.797-4.376c0.144-1.304,0.229-2.375,0.33-3.912   c0.101-1.452,0.207-3.32,0.207-3.472c0-12.982,0-25.961,0-38.943c0.005-0.178-0.058-0.589-0.138-0.849   c-0.048-0.185-0.106-0.3-0.186-0.403c-0.075-0.085-0.165-0.172-0.271-0.233c-0.106-0.053-0.229-0.096-0.346-0.11h-11.996   c-0.138,0.035-0.297,0.093-0.441,0.154c-0.127,0.054-0.233,0.104-0.329,0.189c-0.118,0.11-0.213,0.294-0.282,0.481   C122.35,69.809,122.323,70.014,122.286,70.522"/>
</g>
</svg>